<?xml version="1.0" standalone="no"?>
<!DOCTYPE svg PUBLIC "-//W3C//DTD SVG 20010904//EN"
 "http://www.w3.org/TR/2001/REC-SVG-20010904/DTD/svg10.dtd">
<svg version="1.0" xmlns="http://www.w3.org/2000/svg"
 width="409.000000pt" height="93.000000pt" viewBox="0 0 409.000000 93.000000"
 preserveAspectRatio="xMidYMid meet">

<g transform="translate(0.000000,93.000000) scale(0.100000,-0.100000)"
fill="#000000" stroke="none">
<path d="M1527 713 c-4 -4 4 -18 18 -33 l25 -26 -23 -22 -23 -22 -24 25 c-31
33 -40 32 -40 -6 0 -41 47 -89 89 -89 l30 0 -21 -59 c-16 -45 -31 -67 -60 -88
-20 -15 -38 -30 -38 -33 0 -3 27 -32 59 -64 l59 -58 34 25 c34 25 135 87 143
87 3 0 5 -12 5 -26 0 -36 50 -84 89 -84 36 0 39 10 11 35 -25 22 -25 37 -2 58
17 16 20 15 42 -8 31 -33 40 -32 40 9 0 47 -38 86 -84 86 -26 0 -36 5 -41 20
-3 11 -10 20 -15 20 -9 0 -60 47 -60 55 0 9 -52 59 -73 69 -15 8 -24 24 -28
51 -4 24 -16 47 -33 62 -26 22 -65 30 -79 16z m73 -33 c12 -12 20 -33 20 -54
0 -18 7 -39 15 -46 25 -21 -2 -31 -60 -24 -47 6 -95 35 -95 57 0 6 8 3 18 -6
25 -23 34 -21 65 11 32 33 33 39 10 64 -22 25 2 23 27 -2z m88 -142 c-2 -17 2
-23 17 -23 13 0 19 -6 17 -17 -2 -12 4 -18 18 -18 13 0 20 -7 20 -20 0 -12 5
-17 14 -14 8 3 17 0 21 -6 9 -15 -44 -70 -94 -98 l-37 -21 -53 53 -53 54 17
46 c13 34 27 51 54 64 50 27 63 26 59 0z m-88 -183 c24 -24 42 -46 39 -48 -2
-2 -18 -13 -35 -25 l-31 -21 -43 44 -44 45 24 25 c13 14 29 25 35 25 6 0 31
-20 55 -45z m298 29 c12 -8 22 -22 22 -31 0 -14 -3 -14 -20 2 -20 18 -22 18
-57 -18 -37 -36 -37 -36 -17 -58 19 -22 19 -22 -3 -10 -13 6 -27 20 -33 31
-14 25 -13 73 2 88 17 17 79 15 106 -4z"/>
<path d="M3130 636 c-27 -33 18 -72 48 -42 13 13 14 20 6 34 -15 23 -38 26
-54 8z"/>
<path d="M220 632 c0 -4 9 -13 20 -20 18 -11 20 -23 20 -142 0 -119 -2 -131
-20 -142 -34 -22 -23 -28 50 -28 73 0 84 6 50 28 -16 10 -20 23 -20 67 l0 55
85 0 85 0 0 -50 c0 -37 -5 -55 -20 -70 -11 -11 -20 -22 -20 -25 0 -10 129 -5
135 5 3 6 -1 10 -9 10 -27 0 -36 37 -36 150 0 113 9 150 36 150 8 0 12 5 9 10
-6 10 -135 15 -135 5 0 -3 9 -14 21 -26 16 -16 19 -30 17 -72 l-3 -52 -82 -3
-83 -3 0 61 c0 49 4 62 20 72 34 22 23 28 -50 28 -38 0 -70 -3 -70 -8z"/>
<path d="M688 623 c-15 -10 -32 -30 -39 -45 -20 -48 -4 -74 73 -126 39 -26 76
-55 82 -65 30 -47 -56 -75 -119 -38 -35 21 -45 19 -45 -10 0 -25 30 -39 85
-39 76 0 124 38 125 97 0 38 -20 59 -102 109 -49 30 -58 40 -58 65 0 23 5 30
27 35 24 6 38 3 94 -20 25 -11 33 31 9 44 -29 15 -102 11 -132 -7z"/>
<path d="M1050 628 c0 -28 -113 -275 -135 -295 -14 -12 -25 -25 -25 -28 0 -3
25 -5 55 -5 53 0 72 11 40 24 -20 7 -19 40 1 60 24 24 118 22 144 -4 24 -24
26 -48 5 -56 -34 -13 -11 -24 50 -24 66 0 79 7 48 26 -10 6 -47 79 -83 163
-48 113 -69 151 -82 151 -10 0 -18 -5 -18 -12z m38 -135 c12 -28 22 -56 22
-62 0 -7 -23 -11 -56 -11 -31 0 -54 3 -52 8 2 4 14 35 28 69 13 34 27 59 31
55 3 -4 15 -30 27 -59z"/>
<path d="M2172 507 c-42 -44 -22 -82 66 -126 23 -12 42 -28 42 -35 0 -21 -39
-26 -78 -11 -36 16 -52 13 -52 -10 0 -34 107 -35 147 -1 40 35 25 71 -47 111
-66 37 -81 70 -28 62 18 -3 44 -8 56 -12 21 -7 23 -5 20 16 -3 21 -9 24 -53
27 -43 2 -54 -1 -73 -21z"/>
<path d="M2419 515 c-28 -15 -59 -70 -59 -103 0 -82 95 -137 175 -100 36 16
31 23 -19 23 -49 0 -96 33 -96 67 0 16 9 18 70 18 l70 0 0 39 c0 30 -6 44 -22
55 -28 20 -84 20 -119 1z m91 -35 c16 -31 4 -40 -51 -40 -48 0 -50 1 -43 23 9
28 22 37 56 37 17 0 31 -7 38 -20z"/>
<path d="M2631 519 c-22 -9 -23 -11 -7 -27 22 -25 23 -144 1 -166 -8 -8 -15
-17 -15 -20 0 -10 129 -6 135 4 3 6 -2 10 -12 10 -32 0 -43 21 -43 87 0 69 13
85 61 76 21 -4 27 0 32 17 8 29 -19 38 -55 17 -25 -14 -30 -15 -34 -2 -7 17
-28 18 -63 4z"/>
<path d="M3145 523 c-46 -10 -51 -14 -32 -24 23 -14 26 -166 2 -175 -33 -13
-12 -24 45 -24 33 0 60 2 60 5 0 3 -10 15 -21 26 -20 20 -21 29 -16 110 6 93
6 92 -38 82z"/>
<path d="M3312 510 c-36 -22 -52 -54 -52 -107 0 -52 53 -103 108 -103 25 0 48
7 63 20 l24 20 -37 -6 c-34 -6 -42 -2 -73 29 -26 26 -35 43 -35 69 0 65 26 79
106 53 25 -8 43 23 22 37 -24 15 -92 8 -126 -12z"/>
<path d="M3534 496 c-29 -29 -34 -41 -34 -82 1 -71 42 -114 110 -114 26 0 90
24 90 33 0 2 -23 3 -51 3 -44 -1 -54 3 -75 27 -41 47 -33 57 45 57 54 0 70 4
75 16 20 53 -15 94 -80 94 -39 0 -51 -5 -80 -34z m104 -8 c7 -7 12 -20 12 -30
0 -15 -9 -18 -55 -18 -56 0 -62 9 -32 48 12 15 59 16 75 0z"/>
<path d="M3772 507 c-42 -44 -22 -82 66 -126 47 -24 52 -35 22 -51 -14 -8 -29
-7 -56 5 -38 16 -54 13 -54 -10 0 -34 107 -35 147 -1 40 35 25 71 -47 111 -66
37 -81 70 -28 62 18 -3 44 -8 56 -12 21 -7 23 -5 20 16 -3 21 -9 24 -53 27
-43 2 -54 -1 -73 -21z"/>
<path d="M2837 497 c10 -13 36 -63 57 -110 21 -48 44 -87 51 -87 7 0 29 39 49
87 20 48 47 98 58 110 l21 23 -48 0 c-45 0 -47 -1 -32 -17 14 -16 14 -22 0
-53 -8 -19 -19 -46 -25 -60 -10 -24 -11 -23 -34 30 -15 32 -23 64 -19 77 5 22
2 23 -46 23 l-50 0 18 -23z"/>
</g>
</svg>